<mxfile host="app.diagrams.net" modified="2023-04-05T13:05:12.033Z" agent="Mozilla/5.0 (Macintosh; Intel Mac OS X 10_15_7) AppleWebKit/605.1.15 (KHTML, like Gecko) Version/16.2 Safari/605.1.15" etag="LFx2Ew0bBds8bDwYLLDT" version="21.1.4" type="device">
  <diagram name="Page-1" id="bf5GtzXdIJTg4Rl3z1tn">
    <mxGraphModel dx="1198" dy="874" grid="0" gridSize="10" guides="1" tooltips="1" connect="1" arrows="1" fold="1" page="1" pageScale="1" pageWidth="1169" pageHeight="827" math="0" shadow="0">
      <root>
        <mxCell id="0" />
        <mxCell id="1" parent="0" />
        <mxCell id="DDVHAkdsSV2Ljds5NXX8-1" value="JOB_INSTANCE" style="swimlane;childLayout=stackLayout;horizontal=1;startSize=50;horizontalStack=0;rounded=1;fontSize=14;fontStyle=0;strokeWidth=2;resizeParent=0;resizeLast=1;shadow=0;dashed=0;align=center;arcSize=4;whiteSpace=wrap;html=1;" parent="1" vertex="1">
          <mxGeometry x="440" y="280" width="135" height="120" as="geometry" />
        </mxCell>
        <mxCell id="DDVHAkdsSV2Ljds5NXX8-2" value="+ JOB_INSTANCE_ID&lt;br&gt;+ JOB_NAME&lt;br&gt;+ JOB_KEY" style="align=left;strokeColor=none;fillColor=none;spacingLeft=4;fontSize=12;verticalAlign=top;resizable=0;rotatable=0;part=1;html=1;" parent="DDVHAkdsSV2Ljds5NXX8-1" vertex="1">
          <mxGeometry y="50" width="135" height="70" as="geometry" />
        </mxCell>
        <mxCell id="DDVHAkdsSV2Ljds5NXX8-3" value="JOB_EXECUTION" style="swimlane;childLayout=stackLayout;horizontal=1;startSize=50;horizontalStack=0;rounded=1;fontSize=14;fontStyle=0;strokeWidth=2;resizeParent=0;resizeLast=1;shadow=0;dashed=0;align=center;arcSize=4;whiteSpace=wrap;html=1;" parent="1" vertex="1">
          <mxGeometry x="435" y="430" width="145" height="190" as="geometry" />
        </mxCell>
        <mxCell id="DDVHAkdsSV2Ljds5NXX8-4" value="+ JOB_EXECUTION_ID&lt;br&gt;+ JOB_INSTANCE_ID&lt;br&gt;+ CREATE_TIME&lt;br&gt;+ START_TIME&lt;br&gt;+ END_TIME&lt;br&gt;+ LAST_UPDATED&lt;br&gt;+ STATUS&lt;br&gt;+ EXIT_CODE&lt;br&gt;+ EXIT_MESSAGE" style="align=left;strokeColor=none;fillColor=none;spacingLeft=4;fontSize=12;verticalAlign=top;resizable=0;rotatable=0;part=1;html=1;" parent="DDVHAkdsSV2Ljds5NXX8-3" vertex="1">
          <mxGeometry y="50" width="145" height="140" as="geometry" />
        </mxCell>
        <mxCell id="DDVHAkdsSV2Ljds5NXX8-5" value="JOB_EXECUTION_PARAMS" style="swimlane;childLayout=stackLayout;horizontal=1;startSize=50;horizontalStack=0;rounded=1;fontSize=14;fontStyle=0;strokeWidth=2;resizeParent=0;resizeLast=1;shadow=0;dashed=0;align=center;arcSize=4;whiteSpace=wrap;html=1;" parent="1" vertex="1">
          <mxGeometry x="650" y="440" width="200" height="140" as="geometry" />
        </mxCell>
        <mxCell id="DDVHAkdsSV2Ljds5NXX8-6" value="+ JOB_EXECUTION_ID&lt;br&gt;+ PARAMETER_NAME&lt;br&gt;+ PARAMETER_TYPE&lt;br&gt;+ PARAMETER_VALUE&lt;br&gt;+ IDENTIFYING" style="align=left;strokeColor=none;fillColor=none;spacingLeft=4;fontSize=12;verticalAlign=top;resizable=0;rotatable=0;part=1;html=1;" parent="DDVHAkdsSV2Ljds5NXX8-5" vertex="1">
          <mxGeometry y="50" width="200" height="90" as="geometry" />
        </mxCell>
        <mxCell id="DDVHAkdsSV2Ljds5NXX8-7" value="JOB_EXECUTION_CONTEXT" style="swimlane;childLayout=stackLayout;horizontal=1;startSize=50;horizontalStack=0;rounded=1;fontSize=14;fontStyle=0;strokeWidth=2;resizeParent=0;resizeLast=1;shadow=0;dashed=0;align=center;arcSize=4;whiteSpace=wrap;html=1;" parent="1" vertex="1">
          <mxGeometry x="405" y="670" width="205" height="120" as="geometry" />
        </mxCell>
        <mxCell id="DDVHAkdsSV2Ljds5NXX8-8" value="+ JOB_EXECUTION_ID&lt;br&gt;+ SHORT_CONTEXT&lt;br&gt;+ SERIALIZED_CONTEXT" style="align=left;strokeColor=none;fillColor=none;spacingLeft=4;fontSize=12;verticalAlign=top;resizable=0;rotatable=0;part=1;html=1;" parent="DDVHAkdsSV2Ljds5NXX8-7" vertex="1">
          <mxGeometry y="50" width="205" height="70" as="geometry" />
        </mxCell>
        <mxCell id="DDVHAkdsSV2Ljds5NXX8-9" value="STEP_EXECUTION_CONTEXT" style="swimlane;childLayout=stackLayout;horizontal=1;startSize=50;horizontalStack=0;rounded=1;fontSize=14;fontStyle=0;strokeWidth=2;resizeParent=0;resizeLast=1;shadow=0;dashed=0;align=center;arcSize=4;whiteSpace=wrap;html=1;" parent="1" vertex="1">
          <mxGeometry x="95" y="670" width="220" height="120" as="geometry" />
        </mxCell>
        <mxCell id="DDVHAkdsSV2Ljds5NXX8-10" value="+ STEP_EXECUTION_ID&lt;br&gt;+ SHORT_CONTEXT&lt;br&gt;+ SERIALIZED_CONTEXT" style="align=left;strokeColor=none;fillColor=none;spacingLeft=4;fontSize=12;verticalAlign=top;resizable=0;rotatable=0;part=1;html=1;" parent="DDVHAkdsSV2Ljds5NXX8-9" vertex="1">
          <mxGeometry y="50" width="220" height="70" as="geometry" />
        </mxCell>
        <mxCell id="DDVHAkdsSV2Ljds5NXX8-11" value="STEP_EXECUTION" style="swimlane;childLayout=stackLayout;horizontal=1;startSize=50;horizontalStack=0;rounded=1;fontSize=14;fontStyle=0;strokeWidth=2;resizeParent=0;resizeLast=1;shadow=0;dashed=0;align=center;arcSize=4;whiteSpace=wrap;html=1;" parent="1" vertex="1">
          <mxGeometry x="120" y="280" width="170" height="340" as="geometry" />
        </mxCell>
        <mxCell id="DDVHAkdsSV2Ljds5NXX8-12" value="+ STEP_EXECUTION_ID&lt;br&gt;+ JOB_EXECUTION_ID&lt;br&gt;+&amp;nbsp;STEP_NAME&lt;br&gt;+ CREATE_TIME&lt;br&gt;+ START_TIME&lt;br&gt;+ END_TIME&lt;br&gt;+ LAST_UPDATED&lt;br&gt;+ STATUS&lt;br&gt;&lt;div&gt;+ COMMIT_COUNT&lt;/div&gt;&lt;div&gt;&lt;span style=&quot;&quot; class=&quot;Apple-tab-span&quot;&gt;&lt;/span&gt;+ READ_COUNT&lt;/div&gt;&lt;div&gt;&lt;span style=&quot;&quot; class=&quot;Apple-tab-span&quot;&gt;&lt;/span&gt;+ WRITE_COUNT&lt;/div&gt;&lt;div&gt;+ FILTER_COUNT&lt;br&gt;&lt;/div&gt;&lt;div&gt;&lt;span style=&quot;&quot; class=&quot;Apple-tab-span&quot;&gt;&lt;/span&gt;+ READ_SKIP_COUNT&lt;/div&gt;&lt;div&gt;&lt;span style=&quot;&quot; class=&quot;Apple-tab-span&quot;&gt;&lt;/span&gt;+ WRITE_SKIP_COUNT&lt;/div&gt;&lt;div&gt;&lt;span style=&quot;&quot; class=&quot;Apple-tab-span&quot;&gt;&lt;/span&gt;+ PROCESS_SKIP_COUNT&lt;/div&gt;&lt;div&gt;&lt;span style=&quot;&quot; class=&quot;Apple-tab-span&quot;&gt;&lt;/span&gt;+ ROLLBACK_COUNT&lt;/div&gt;+ EXIT_CODE&lt;br&gt;+ EXIT_MESSAGE" style="align=left;strokeColor=none;fillColor=none;spacingLeft=4;fontSize=12;verticalAlign=top;resizable=0;rotatable=0;part=1;html=1;" parent="DDVHAkdsSV2Ljds5NXX8-11" vertex="1">
          <mxGeometry y="50" width="170" height="290" as="geometry" />
        </mxCell>
        <mxCell id="DDVHAkdsSV2Ljds5NXX8-17" value="" style="fontSize=12;html=1;endArrow=ERoneToMany;startArrow=ERmandOne;movable=1;resizable=1;rotatable=1;deletable=1;editable=1;locked=0;connectable=1;entryX=0.5;entryY=0;entryDx=0;entryDy=0;exitX=0.5;exitY=1;exitDx=0;exitDy=0;strokeColor=default;rounded=1;" parent="1" source="DDVHAkdsSV2Ljds5NXX8-2" target="DDVHAkdsSV2Ljds5NXX8-3" edge="1">
          <mxGeometry width="100" height="100" relative="1" as="geometry">
            <mxPoint x="375" y="610" as="sourcePoint" />
            <mxPoint x="475" y="510" as="targetPoint" />
          </mxGeometry>
        </mxCell>
        <mxCell id="DDVHAkdsSV2Ljds5NXX8-18" value="" style="fontSize=12;html=1;endArrow=ERoneToMany;startArrow=ERmandOne;movable=1;resizable=1;rotatable=1;deletable=1;editable=1;locked=0;connectable=1;entryX=0;entryY=0.25;entryDx=0;entryDy=0;exitX=1;exitY=0.25;exitDx=0;exitDy=0;strokeColor=default;rounded=1;" parent="1" source="DDVHAkdsSV2Ljds5NXX8-4" target="DDVHAkdsSV2Ljds5NXX8-6" edge="1">
          <mxGeometry width="100" height="100" relative="1" as="geometry">
            <mxPoint x="540" y="350" as="sourcePoint" />
            <mxPoint x="540" y="440" as="targetPoint" />
          </mxGeometry>
        </mxCell>
        <mxCell id="DDVHAkdsSV2Ljds5NXX8-19" value="" style="fontSize=12;html=1;endArrow=ERoneToMany;startArrow=ERmandOne;movable=1;resizable=1;rotatable=1;deletable=1;editable=1;locked=0;connectable=1;exitX=0;exitY=0.25;exitDx=0;exitDy=0;strokeColor=default;rounded=1;entryX=1;entryY=0.25;entryDx=0;entryDy=0;edgeStyle=orthogonalEdgeStyle;" parent="1" source="DDVHAkdsSV2Ljds5NXX8-4" target="DDVHAkdsSV2Ljds5NXX8-12" edge="1">
          <mxGeometry width="100" height="100" relative="1" as="geometry">
            <mxPoint x="635" y="560" as="sourcePoint" />
            <mxPoint x="345" y="537.8378378378379" as="targetPoint" />
          </mxGeometry>
        </mxCell>
        <mxCell id="DDVHAkdsSV2Ljds5NXX8-20" value="" style="fontSize=12;html=1;endArrow=ERoneToMany;startArrow=ERmandOne;movable=1;resizable=1;rotatable=1;deletable=1;editable=1;locked=0;connectable=1;exitX=0.5;exitY=1;exitDx=0;exitDy=0;strokeColor=default;rounded=1;entryX=0.5;entryY=0;entryDx=0;entryDy=0;" parent="1" source="DDVHAkdsSV2Ljds5NXX8-12" target="DDVHAkdsSV2Ljds5NXX8-9" edge="1">
          <mxGeometry width="100" height="100" relative="1" as="geometry">
            <mxPoint x="250" y="670" as="sourcePoint" />
            <mxPoint x="280" y="730" as="targetPoint" />
          </mxGeometry>
        </mxCell>
        <mxCell id="DDVHAkdsSV2Ljds5NXX8-21" value="" style="fontSize=12;html=1;endArrow=ERoneToMany;startArrow=ERmandOne;movable=1;resizable=1;rotatable=1;deletable=1;editable=1;locked=0;connectable=1;exitX=0.5;exitY=1;exitDx=0;exitDy=0;strokeColor=default;rounded=1;" parent="1" source="DDVHAkdsSV2Ljds5NXX8-4" target="DDVHAkdsSV2Ljds5NXX8-7" edge="1">
          <mxGeometry width="100" height="100" relative="1" as="geometry">
            <mxPoint x="185" y="730" as="sourcePoint" />
            <mxPoint x="185" y="800" as="targetPoint" />
          </mxGeometry>
        </mxCell>
      </root>
    </mxGraphModel>
  </diagram>
</mxfile>
